 <svg
        xmlns="http://www.w3.org/2000/svg"
        version="1.1"
        xmlnsXlink="http://www.w3.org/1999/xlink"
        width="1440"
        height="560"
        preserveAspectRatio="none"
        viewBox="0 0 1440 560"
      >
        <g mask='url("#SvgjsMask1003")' fill="none">
          <path
            d="M280 250.83C269.6 250.83 261.58 268.04 261.58 280C261.58 287.11 270.52 288.97 280 288.97C292.7 288.97 305.93 287.87 305.93 280C305.93 268.8 291.77 250.83 280 250.83"
            stroke="rgba(255, 255, 255, 1)"
            stroke-width="2"
          ></path>
          <path
            d="M700 254.55C687.55 254.55 670.53 267.87 670.53 280C670.53 291.37 687.24 301.54 700 301.54C708.98 301.54 714 291.03 714 280C714 267.53 709.29 254.55 700 254.55"
            stroke="rgba(255, 255, 255, 1)"
            stroke-width="2"
          ></path>
          <path
            d="M1400 272.53C1391.66 272.53 1381.94 273.21 1381.94 280C1381.94 292.5 1393.14 311.11 1400 311.11C1406.12 311.11 1407.89 294.41 1407.89 280C1407.89 275.12 1404.64 272.53 1400 272.53"
            stroke="rgba(255, 255, 255, 1)"
            stroke-width="2"
          ></path>
          <path
            d="M1260 362.17C1234.89 362.17 1219.7 388.86 1219.7 420C1219.7 467.03 1232.47 518.52 1260 518.52C1292.92 518.52 1340.61 463.93 1340.61 420C1340.61 385.76 1295.34 362.17 1260 362.17"
            stroke="rgba(255, 255, 255, 1)"
            stroke-width="2"
          ></path>
          <path
            d="M35 140C39.35 87.15 87.74 94.87 140 49.19C167.82 24.87 162.56 11.45 195.15 0C232.56 -13.15 237.58 0 280 0C350 0 350 0 420 0C435.32 0 449.67 -12.46 450.63 0C455.06 57.54 442.93 70.5 430.77 140C427.62 158 427.32 175 420 175C411.94 175 417.45 146.64 400 140C347.45 120.01 336.59 121.74 280 121.74C268.81 121.74 271.3 130.17 264.44 140C216.04 209.3 164.96 223.87 169.47 280C172.74 320.79 221.62 324.95 280 333.85C346.89 344.04 349.87 319.58 420 318.18C489.87 316.79 497.32 303.82 560 328.28C627.77 354.73 619.54 375.61 680.91 420C689.54 426.24 689.53 427.9 700 429.55C769.08 440.4 771.36 448.17 840 445C874.7 443.4 906.67 439.72 906.67 420C906.67 393.89 867.99 390.6 840 353.33C815.41 320.6 801.5 315.28 801.5 280C801.5 252.06 816.03 248.83 840 226.9C892.55 178.83 896.16 181.67 954.55 140C966.16 131.71 970.84 137.7 980 126.98C1030.64 67.7 1019.88 49.21 1074.14 0C1089.88 -14.28 1097.07 0 1120 0C1190 0 1190 0 1260 0C1296.52 0 1302.75 -14.81 1333.04 0C1372.75 19.41 1362.54 68.44 1400 68.44C1450.05 68.44 1452.05 27.38 1508.07 0C1522.05 -6.84 1537.04 -13 1540 0C1553 57 1540 70 1540 140C1540 210 1540 210 1540 280C1540 348.37 1559.09 416.74 1540 416.74C1517.68 416.74 1504.08 343.94 1457.18 280C1434.08 248.51 1429.32 252.13 1400 225.87C1351.19 182.13 1349.71 183.76 1300.92 140C1279.71 120.97 1280.46 100.3 1260 100.3C1239.54 100.3 1219.08 115.06 1219.08 140C1219.08 198.24 1237.72 204.22 1260 266.67C1262.69 274.22 1269.03 274.21 1269.03 280C1269.03 283.92 1263.2 281.71 1260 286.09C1212.02 351.71 1217.02 356.24 1166.67 420C1147.02 444.89 1149.19 456.87 1120 463.38C1055.86 477.68 1033.23 434.63 980 461.62C937.95 482.94 968.14 532.8 929.44 560C898.14 581.99 884.72 560 840 560C770 560 770 560 700 560C651.36 560 641.04 578.65 602.71 560C571.04 544.59 592.01 512.78 560 491.89C500.65 453.15 479.96 424.47 420 440.74C354.45 458.53 368.4 509.37 308.97 560C298.4 569 294.49 560 280 560C261.74 560 253.21 573.38 243.48 560C202.3 503.38 209.08 490.75 178.18 420C157.34 372.29 159.68 371.29 140 323.08C131.1 301.29 132.71 300.39 121.02 280C80.21 208.85 29.86 202.56 35 140"
            stroke="rgba(255, 255, 255, 1)"
            stroke-width="2"
          ></path>
          <path
            d="M840 46.67C798.88 46.67 743.08 12.28 743.08 0C743.08 -11.06 791.54 0 840 0C853.13 0 866.25 -7.68 866.25 0C866.25 15.66 860.47 46.67 840 46.67"
            stroke="rgba(255, 255, 255, 1)"
            stroke-width="2"
          ></path>
          <path
            d="M0 357.61C31.59 357.61 97.29 387.64 97.29 420C97.29 453.42 30.8 489.16 0 489.16C-17.85 489.16 0 454.58 0 420C0 388.81 -17.05 357.61 0 357.61"
            stroke="rgba(255, 255, 255, 1)"
            stroke-width="2"
          ></path>
          <path
            d="M89.69 140C89.69 114.45 113.95 96.49 140 96.49C168.92 96.49 199.63 113.69 199.63 140C199.63 175.7 168.22 220.5 140 220.5C113.25 220.5 89.69 176.46 89.69 140"
            stroke="rgba(255, 255, 255, 1)"
            stroke-width="2"
          ></path>
          <path
            d="M280 45.65C260.17 45.65 248.18 14.52 248.18 0C248.18 -8.3 264.09 0 280 0C311.82 0 343.64 -10.23 343.64 0C343.64 12.59 307.9 45.65 280 45.65"
            stroke="rgba(255, 255, 255, 1)"
            stroke-width="2"
          ></path>
          <path
            d="M1050 140C1050 87.21 1089.85 31.11 1120 31.11C1147.46 31.11 1165.23 86.42 1165.23 140C1165.23 185.41 1147 229.09 1120 229.09C1089.38 229.09 1050 186.2 1050 140"
            stroke="rgba(255, 255, 255, 1)"
            stroke-width="2"
          ></path>
          <path
            d="M1260 48.06C1211.04 48.06 1148.97 12.53 1148.97 0C1148.97 -11.5 1204.49 0 1260 0C1277.5 0 1295 -8.9 1295 0C1295 15.13 1284.06 48.06 1260 48.06"
            stroke="rgba(255, 255, 255, 1)"
            stroke-width="2"
          ></path>
          <path
            d="M1354.77 140C1354.77 122.66 1373.78 114.63 1400 107.33C1466.39 88.84 1488.72 76.45 1540 88.42C1558.72 92.79 1540 114.21 1540 140C1540 210 1540 210 1540 280C1540 307.67 1547.73 335.35 1540 335.35C1530.97 335.35 1527.91 303.91 1506.48 280C1457.91 225.83 1453.87 228.91 1400 179.2C1378.01 158.91 1354.77 158.6 1354.77 140"
            stroke="rgba(255, 255, 255, 1)"
            stroke-width="2"
          ></path>
          <path
            d="M0 395.65C12.33 395.65 37.97 407.37 37.97 420C37.97 433.04 12.02 446.99 0 446.99C-6.96 446.99 0 433.5 0 420C0 407.83 -6.66 395.65 0 395.65"
            stroke="rgba(255, 255, 255, 1)"
            stroke-width="2"
          ></path>
          <path
            d="M231.21 420C231.21 394.8 253.24 378.72 280 378.72C317.88 378.72 360.5 391.95 360.5 420C360.5 457.31 315.01 509.44 280 509.44C250.36 509.44 231.21 460.16 231.21 420"
            stroke="rgba(255, 255, 255, 1)"
            stroke-width="2"
          ></path>
          <path
            d="M662.03 560C662.03 544.07 672.23 517.28 700 509.09C761.22 491.03 778.7 490.24 840 507.5C869.12 515.7 880.83 543.74 880.83 560C880.83 569.99 860.41 560 840 560C770 560 770 560 700 560C681.01 560 662.03 569.52 662.03 560"
            stroke="rgba(255, 255, 255, 1)"
            stroke-width="2"
          ></path>
        </g>
        <defs>
          <mask id="SvgjsMask1003">
            <rect width="1440" height="560" fill="#ffffff"></rect>
          </mask>
        </defs>
      </svg>