<svg width="139" height="140" viewBox="0 0 139 140" fill="none" xmlns="http://www.w3.org/2000/svg">
<path fill-rule="evenodd" clip-rule="evenodd" d="M69.1763 57.6231C70.8992 50.3714 74.5892 43.492 80.2465 37.8348C89.4357 28.6455 101.85 24.6466 113.846 25.838C115.037 37.834 111.038 50.2481 101.849 59.4373C92.8962 68.3902 80.8823 72.4163 69.1763 71.5158C57.4703 72.4163 45.4564 68.3902 36.5036 59.4373C27.3143 50.2481 23.3154 37.834 24.5067 25.838C36.5027 24.6466 48.9169 28.6455 58.1061 37.8348C63.7633 43.492 67.4534 50.3714 69.1763 57.6231ZM56.1422 39.7987C64.1252 47.7816 67.9124 58.3693 67.5005 68.8317C57.0381 69.2437 46.4504 65.4565 38.4674 57.4735C30.4844 49.4905 26.6972 38.9028 27.1092 28.4404C37.5716 28.0285 48.1593 31.8157 56.1422 39.7987ZM82.2103 39.7987C74.2273 47.7816 70.4401 58.3693 70.8521 68.8317C81.3145 69.2437 91.9022 65.4565 99.8851 57.4735C107.868 49.4905 111.655 38.9028 111.243 28.4404C100.781 28.0285 90.1933 31.8157 82.2103 39.7987Z" fill="black"/>
<path fill-rule="evenodd" clip-rule="evenodd" d="M69.1763 82.8779C70.8992 90.1295 74.5892 97.009 80.2465 102.666C89.4357 111.855 101.85 115.854 113.846 114.663C115.037 102.667 111.038 90.2529 101.849 81.0636C92.8962 72.1108 80.8823 68.0846 69.1763 68.9852C57.4703 68.0846 45.4564 72.1108 36.5036 81.0636C27.3143 90.2529 23.3154 102.667 24.5067 114.663C36.5027 115.854 48.9169 111.855 58.1061 102.666C63.7633 97.009 67.4534 90.1295 69.1763 82.8779ZM56.1422 100.702C64.1252 92.7193 67.9124 82.1317 67.5005 71.6693C57.0381 71.2573 46.4504 75.0445 38.4674 83.0275C30.4844 91.0105 26.6972 101.598 27.1092 112.061C37.5716 112.473 48.1593 108.685 56.1422 100.702ZM82.2103 100.702C74.2273 92.7193 70.4401 82.1317 70.8521 71.6693C81.3145 71.2573 91.9022 75.0445 99.8851 83.0275C107.868 91.0105 111.655 101.598 111.243 112.061C100.781 112.473 90.1933 108.685 82.2103 100.702Z" fill="black"/>
</svg>
