<?xml version="1.0" encoding="iso-8859-1"?>
<!-- Uploaded to: SVG Repo, www.svgrepo.com, Generator: SVG Repo Mixer Tools -->
<svg height="800px" width="800px" version="1.1" id="Layer_1" xmlns="http://www.w3.org/2000/svg" xmlns:xlink="http://www.w3.org/1999/xlink" 
	 viewBox="0 0 512.001 512.001" xml:space="preserve">
<path style="fill:#6CDFB4;" d="M255.992,16.815v235.68c48.814,0,88.379-52.757,88.379-117.846
	C344.371,69.573,304.806,16.815,255.992,16.815z"/>
<g>
	<path style="fill:#7BFFCD;" d="M255.992,16.815c30.763,0,55.698,52.757,55.698,117.835c0,65.089-24.935,117.846-55.698,117.846
		c-48.803,0-88.368-52.757-88.368-117.846C167.624,69.572,207.189,16.815,255.992,16.815z"/>
	<path style="fill:#7BFFCD;" d="M11.489,194.475l224.145,72.829c15.084-46.425-22.864-100.356-84.768-120.47
		C88.974,126.725,26.573,148.05,11.489,194.475z"/>
</g>
<g>
	<path style="fill:#6CDFB4;" d="M11.489,194.475c9.507-29.258,67.387-36.67,129.279-16.559
		c61.903,20.114,104.373,60.131,94.866,89.389c-15.081,46.414-77.482,67.74-139.385,47.626
		C34.357,294.821-3.592,240.888,11.489,194.475z"/>
	<path style="fill:#6CDFB4;" d="M104.897,481.911l138.529-190.67c-39.491-28.692-102.51-9.266-140.768,43.391
		C64.407,387.282,65.406,453.219,104.897,481.911z"/>
</g>
<path style="fill:#7BFFCD;" d="M104.897,481.911c-24.888-18.082-14.051-75.42,24.201-128.069
	c38.258-52.658,89.441-80.683,114.329-62.6c39.482,28.686,40.481,94.623,2.223,147.281
	C207.398,491.17,144.38,510.596,104.897,481.911z"/>
<path style="fill:#5DC09A;" d="M407.13,481.897L268.6,291.227c-39.491,28.692-40.49,94.629-2.232,147.287
	C304.619,491.163,367.638,510.588,407.13,481.897z"/>
<path style="fill:#6CDFB4;" d="M407.13,481.897c-24.888,18.082-76.07-9.942-114.323-62.592
	c-38.258-52.658-49.095-109.996-24.207-128.078c39.482-28.686,102.501-9.259,140.759,43.397
	C447.612,387.274,446.612,453.211,407.13,481.897z"/>
<path style="fill:#4DA081;" d="M500.511,194.452l-224.145,72.829c15.084,46.425,77.485,67.751,139.389,47.637
	C477.647,294.808,515.596,240.876,500.511,194.452z"/>
<path style="fill:#5DC09A;" d="M500.511,194.452c9.507,29.258-32.964,69.275-94.856,89.385
	c-61.903,20.114-119.784,12.702-129.289-16.556c-15.081-46.414,22.868-100.345,84.771-120.459
	C423.029,126.712,485.43,148.038,500.511,194.452z"/>
<circle style="fill:#864941;" cx="256.008" cy="273.904" r="35.948"/>
<circle style="fill:#7BFFCD;" cx="73.357" cy="244.078" r="8.17"/>
<circle style="fill:#5DC09A;" cx="380.553" cy="405.509" r="8.17"/>
<circle style="fill:#7BFFCD;" cx="95.144" cy="211.398" r="8.17"/>
<circle style="fill:#FFD764;" cx="256.008" cy="230.352" r="25.6"/>
<circle style="fill:#FFB751;" cx="214.559" cy="260.462" r="25.6"/>
<circle style="fill:#FFD764;" cx="230.387" cy="309.177" r="25.6"/>
<circle style="fill:#FFB751;" cx="281.619" cy="309.177" r="25.6"/>
<circle style="fill:#FFD764;" cx="297.447" cy="260.462" r="25.6"/>
<path d="M508.263,191.918c-7.385-22.73-25.313-40.99-50.481-51.416c-24.228-10.037-53.572-12.143-82.624-5.926
	c-4.412,0.944-7.223,5.287-6.28,9.698c0.944,4.413,5.286,7.223,9.698,6.28c52.806-11.299,101.877,8.656,114.145,46.414
	c6.481,19.946,2.068,42.275-12.425,62.874c-14.999,21.317-38.825,38.115-67.09,47.298c-35.197,11.436-72.727,8.888-98.953-6.521
	c-0.812-3.112-2.081-6.145-3.825-9.003c7.399-3.074,13.407-8.609,17.083-15.826c4.095-8.037,4.815-17.188,2.027-25.766
	c-2.344-7.215-6.935-13.19-12.837-17.296c22.609-23.761,35.812-59.423,35.812-98.081c0-33.232-9.774-64.566-27.52-88.226
	c-18.273-24.364-42.788-37.783-69.03-37.783c-23.899,0-46.806,11.408-64.5,32.122c-17.033,19.942-28.102,47.197-31.167,76.748
	c-0.466,4.488,2.795,8.505,7.283,8.97c4.49,0.465,8.505-2.795,8.97-7.283c5.572-53.711,39.713-94.215,79.415-94.215
	c44.229,0,80.21,49.197,80.21,109.669c0,37.017-14.028,71.935-36.799,92.113c-0.647-0.037-1.293-0.077-1.947-0.077
	c-2.626,0-5.24,0.31-7.798,0.921c-1.404-17.339-15.954-31.022-33.649-31.022c-7.655,0-14.719,2.564-20.389,6.873
	c-15.607-28.855-45.45-52.439-82.224-64.388c-31.605-10.27-64.426-10.658-92.413-1.092c-28.819,9.85-49.156,29.019-57.264,53.976
	c-7.386,22.73-3.614,48.041,10.618,71.27c13.702,22.362,36.203,41.311,63.361,53.358c1.076,0.478,2.202,0.704,3.308,0.704
	c3.132,0,6.12-1.812,7.472-4.858c1.83-4.125-0.031-8.951-4.155-10.781C34.935,279.744,6.965,234.759,19.232,197
	c6.481-19.946,23.175-35.417,47.009-43.563c24.663-8.43,53.812-8.014,82.079,1.169c35.197,11.436,64.065,35.558,76.224,63.441
	c-1.179,3.001-1.939,6.209-2.209,9.556c-2.559-0.61-5.171-0.921-7.798-0.921c-14.671,0-27.576,9.38-32.113,23.341
	c-2.364,7.277-2.11,14.785,0.233,21.507c-32.26,5.933-63.903,27.023-86.625,58.3c-19.534,26.885-30.044,57.978-29.594,87.553
	c0.462,30.452,12.409,55.716,33.638,71.141c13.468,9.785,29.797,14.809,47.419,14.809c7.678,0,15.604-0.954,23.642-2.883
	c25.502-6.121,50.477-21.666,70.327-43.77c3.015-3.357,2.738-8.523-0.62-11.537c-3.36-3.017-8.525-2.736-11.537,0.62
	c-36.081,40.178-87.509,52.878-119.627,29.544c-35.781-25.997-35.972-86.947-0.429-135.87
	c21.746-29.931,53.595-49.928,83.863-52.885c2.495,2.055,5.317,3.772,8.423,5.065c-9.061,14.854-5.333,34.479,8.985,44.882
	c5.808,4.22,12.665,6.451,19.828,6.451c0.239,0,0.474-0.016,0.711-0.022c-4.32,32.509,5.96,69.114,28.679,100.383
	c19.533,26.885,45.856,46.49,74.121,55.202c10.523,3.244,20.861,4.85,30.782,4.849c17.516,0,33.72-5.01,47.273-14.857
	c19.336-14.048,31.162-36.742,33.3-63.899c2.06-26.144-5.007-54.702-19.896-80.41c-2.261-3.904-7.258-5.236-11.165-2.975
	c-3.904,2.261-5.238,7.26-2.975,11.165c27.063,46.729,23.25,99.565-8.869,122.9c-16.968,12.329-39.567,15.032-63.638,7.612
	c-24.908-7.677-48.246-25.147-65.715-49.191c-21.751-29.936-30.928-66.415-24.379-96.12c2.747-1.758,5.245-3.915,7.4-6.423
	c6.378,7.418,15.764,11.785,25.633,11.785c7.164,0,14.02-2.231,19.828-6.451c6.199-4.504,10.41-10.74,12.462-17.567
	c16.285,7.794,35.113,11.769,54.888,11.769c16.152,0,32.932-2.647,49.462-8.018c31.606-10.269,58.386-29.247,75.405-53.436
	C511.187,244.336,516.373,216.875,508.263,191.918z M261.747,281.856c-2.167,1.574-4.082,3.364-5.756,5.312
	c-1.693-1.963-3.62-3.75-5.769-5.312c-2.145-1.559-4.434-2.841-6.827-3.844c1.336-2.204,2.442-4.582,3.266-7.116
	c0.821-2.527,1.33-5.106,1.545-7.69c2.499,0.592,5.101,0.914,7.779,0.914s5.28-0.322,7.779-0.914
	c0.216,2.584,0.724,5.161,1.545,7.69c0.824,2.535,1.93,4.912,3.266,7.116C266.181,279.015,263.891,280.298,261.747,281.856z
	 M297.43,243.022c7.57,0,14.229,4.843,16.571,12.051c1.438,4.427,1.066,9.15-1.047,13.299c-2.113,4.148-5.716,7.225-10.144,8.664
	c-1.756,0.57-3.57,0.859-5.39,0.859c-7.57,0-14.23-4.842-16.572-12.05c-1.438-4.427-1.066-9.151,1.047-13.299
	s5.716-7.225,10.144-8.664C293.796,243.311,295.609,243.022,297.43,243.022z M255.984,212.921c9.61,0,17.43,7.819,17.43,17.43
	c0,9.61-7.819,17.43-17.43,17.43c-9.61,0-17.43-7.819-17.43-17.43C238.555,220.74,246.373,212.921,255.984,212.921z
	 M197.966,255.073c2.342-7.207,9.002-12.05,16.572-12.05c1.821,0,3.635,0.29,5.391,0.861c4.427,1.439,8.03,4.515,10.144,8.664
	c2.114,4.148,2.485,8.872,1.047,13.299c-2.342,7.208-9.002,12.05-16.572,12.05c-1.821,0-3.635-0.29-5.391-0.859
	c-2.722-0.885-5.069-2.39-6.958-4.294c-0.157-0.18-0.321-0.35-0.493-0.514C197.609,267.743,195.959,261.249,197.966,255.073z
	 M220.127,323.277c-7.776-5.649-9.506-16.571-3.856-24.346c3.27-4.5,8.549-7.188,14.122-7.188c3.691,0,7.226,1.151,10.225,3.33
	c3.766,2.736,6.241,6.776,6.97,11.374c0.728,4.598-0.379,9.205-3.114,12.972c-1.632,2.246-3.765,4.04-6.185,5.275
	c-0.198,0.084-0.391,0.176-0.582,0.276c-2.278,1.058-4.783,1.636-7.354,1.636C226.661,326.607,223.125,325.456,220.127,323.277z
	 M291.841,323.277c-2.999,2.179-6.534,3.331-10.225,3.331c-5.573,0-10.852-2.686-14.122-7.186
	c-5.649-7.776-3.918-18.696,3.856-24.346c2.999-2.179,6.534-3.331,10.225-3.331c5.573,0,10.852,2.686,14.122,7.188
	c1.733,2.386,2.765,5.068,3.147,7.803c0.008,0.06,0.021,0.118,0.029,0.176C299.666,313.035,297.179,319.399,291.841,323.277z"/>
</svg>